<?xml version="1.0" encoding="UTF-8" standalone="no"?>
<!DOCTYPE svg PUBLIC "-//W3C//DTD SVG 1.1//EN"
 "http://www.w3.org/Graphics/SVG/1.1/DTD/svg11.dtd">
<!-- Generated by graphviz version 12.1.1 (20240910.0053)
 -->
<!-- Title: INFRA Pages: 1 -->
<svg width="201pt" height="80pt"
 viewBox="0.00 0.00 200.61 80.00" xmlns="http://www.w3.org/2000/svg" xmlns:xlink="http://www.w3.org/1999/xlink">
<g id="graph0" class="graph" transform="scale(1 1) rotate(0) translate(4 76)">
<title>INFRA</title>
<polygon fill="white" stroke="none" points="-4,4 -4,-76 196.61,-76 196.61,4 -4,4"/>
<!-- MySQL Database -->
<g id="node1" class="node">
<title>MySQL Database</title>
<path fill="#ffcfb3" stroke="black" stroke-width="2" d="M192.61,-65.45C192.61,-69.07 149.44,-72 96.3,-72 43.16,-72 0,-69.07 0,-65.45 0,-65.45 0,-6.55 0,-6.55 0,-2.93 43.16,0 96.3,0 149.44,0 192.61,-2.93 192.61,-6.55 192.61,-6.55 192.61,-65.45 192.61,-65.45"/>
<path fill="none" stroke="black" stroke-width="2" d="M192.61,-65.45C192.61,-61.84 149.44,-58.91 96.3,-58.91 43.16,-58.91 0,-61.84 0,-65.45"/>
<text text-anchor="middle" x="96.3" y="-40.2" font-family="Arial" font-size="14.00">MySQL Database</text>
<text text-anchor="middle" x="96.3" y="-23.4" font-family="Arial" font-size="14.00">(Docker::MySQL::Container)</text>
</g>
</g>
</svg>
